<svg xmlns="http://www.w3.org/2000/svg" xmlns:xlink="http://www.w3.org/1999/xlink" version="1.1" id="Layer_1" x="0px"
  y="0px" width="100%" viewBox="0 0 1024 1024" enable-background="new 0 0 1024 1024" xml:space="preserve">
  <path opacity="1.000000" stroke="none"
    d=" M1025.000000,734.000000   C1025.000000,830.974304 1025.000000,927.948669 1025.000000,1024.961426   C683.782715,1024.961426 342.565460,1024.961426 1.000000,1024.961426   C1.000000,928.308716 1.000000,831.617004 1.307572,734.172363   C6.346835,741.991821 11.318295,750.385620 19.126911,756.634338   C27.215364,763.106995 35.918137,768.015259 46.716385,768.013550   C172.203018,767.993286 297.689667,768.000549 423.176300,768.000549   C425.091034,768.000549 427.005768,768.000610 428.646301,768.000610   C428.646301,797.441650 428.646301,826.179199 428.646301,855.308289   C385.890259,855.308289 343.486725,855.308289 301.353668,855.308289   C301.353668,876.777954 301.353668,897.850281 301.353668,918.658264   C442.769623,918.658264 583.831177,918.658264 724.656616,918.658264   C724.656616,897.242859 724.656616,876.170776 724.656616,854.708557   C681.909790,854.708557 639.506287,854.708557 597.345947,854.708557   C597.345947,825.573914 597.345947,796.836426 597.345947,768.000610   C599.518066,768.000610 601.344971,768.000549 603.171936,768.000549   C728.991882,768.000549 854.811829,768.004333 980.631775,767.965698   C982.540771,767.965088 984.503235,767.636597 986.350159,767.130371   C1003.016235,762.562439 1014.822083,752.286438 1022.100220,736.650635   C1022.610352,735.554626 1024.012573,734.873901 1025.000000,734.000000  z"
    fill="transparent" />
  <path fill="transparent" opacity="1.000000" stroke="none"
    d=" M1.000000,174.000000   C1.000000,116.351311 1.000000,58.702621 1.000002,1.058640   C342.333344,1.063350 683.666687,1.063350 1025.000000,1.063350   C1025.000000,58.441879 1025.000000,115.757057 1024.692383,173.826385   C1019.680664,166.407242 1014.993652,158.318192 1007.629822,152.010803   C998.449585,144.147629 988.017334,139.110443 976.046753,139.105240   C667.398499,138.971207 358.750214,138.993362 50.101944,139.074158   C46.607548,139.075073 43.050827,139.961349 39.629799,140.846405   C22.794693,145.201813 11.281974,155.842239 3.901341,171.349152   C3.379836,172.444870 1.987436,173.126053 1.000000,174.000000  z" />
  <path fill="#FFFFFF" opacity="1.000000" stroke="none"
    d=" M1.000000,174.468658   C1.987436,173.126053 3.379836,172.444870 3.901341,171.349152   C11.281974,155.842239 22.794693,145.201813 39.629799,140.846405   C43.050827,139.961349 46.607548,139.075073 50.101944,139.074158   C358.750214,138.993362 667.398499,138.971207 976.046753,139.105240   C988.017334,139.110443 998.449585,144.147629 1007.629822,152.010803   C1014.993652,158.318192 1019.680664,166.407242 1024.692383,174.290253   C1025.000000,360.354218 1025.000000,546.708435 1025.000000,733.531372   C1024.012573,734.873901 1022.610352,735.554626 1022.100220,736.650635   C1014.822083,752.286438 1003.016235,762.562439 986.350159,767.130371   C984.503235,767.636597 982.540771,767.965088 980.631775,767.965698   C854.811829,768.004333 728.991882,768.000549 603.171936,768.000549   C601.344971,768.000549 599.518066,768.000610 597.345947,768.000610   C597.345947,796.836426 597.345947,825.573914 597.345947,854.708557   C639.506287,854.708557 681.909790,854.708557 724.656616,854.708557   C724.656616,876.170776 724.656616,897.242859 724.656616,918.658264   C583.831177,918.658264 442.769623,918.658264 301.353668,918.658264   C301.353668,897.850281 301.353668,876.777954 301.353668,855.308289   C343.486725,855.308289 385.890259,855.308289 428.646301,855.308289   C428.646301,826.179199 428.646301,797.441650 428.646301,768.000610   C427.005768,768.000610 425.091034,768.000549 423.176300,768.000549   C297.689667,768.000549 172.203018,767.993286 46.716385,768.013550   C35.918137,768.015259 27.215364,763.106995 19.126911,756.634338   C11.318295,750.385620 6.346835,741.991821 1.307572,733.709717   C1.000000,547.645752 1.000000,361.291534 1.000000,174.468658  M778.500000,147.000610   C538.340393,147.000610 298.180786,146.998383 58.021179,147.022675   C54.534214,147.023026 50.978016,146.973541 47.571419,147.592682   C22.879930,152.080154 7.008996,171.189926 7.007166,196.329346   C6.994694,367.658112 7.000106,538.986877 7.001120,710.315613   C7.001299,740.722900 27.274902,760.998596 57.679020,760.998901   C182.175690,761.000122 306.672363,760.999451 431.169037,760.999451   C433.084686,760.999451 435.000336,760.999451 436.648987,760.999451   C436.648987,795.436096 436.648987,829.175171 436.648987,863.310181   C393.892029,863.310181 351.486053,863.310181 309.359863,863.310181   C309.359863,879.452271 309.359863,895.193115 309.359863,910.639099   C445.455322,910.639099 581.191406,910.639099 716.634644,910.639099   C716.634644,894.536682 716.634644,878.795654 716.634644,862.663696   C673.865540,862.663696 631.460815,862.663696 589.193848,862.663696   C589.193848,828.642761 589.193848,795.022888 589.193848,760.999451   C591.157471,760.999451 592.950806,760.999451 594.744141,760.999451   C719.407471,760.999451 844.070801,761.001770 968.734131,760.997864   C998.459595,760.996887 1018.996704,740.513000 1018.997437,710.856995   C1019.001648,539.528259 1019.002930,368.199524 1018.995972,196.870773   C1018.994812,167.537292 998.402100,147.007370 968.994934,147.003296   C905.829956,146.994553 842.664978,147.000610 778.500000,147.000610  z" />
  <path fill="#000000" opacity="1.000000" stroke="none"
    d=" M779.000000,147.000610   C842.664978,147.000610 905.829956,146.994553 968.994934,147.003296   C998.402100,147.007370 1018.994812,167.537292 1018.995972,196.870773   C1019.002930,368.199524 1019.001648,539.528259 1018.997437,710.856995   C1018.996704,740.513000 998.459595,760.996887 968.734131,760.997864   C844.070801,761.001770 719.407471,760.999451 594.744141,760.999451   C592.950806,760.999451 591.157471,760.999451 589.193848,760.999451   C589.193848,795.022888 589.193848,828.642761 589.193848,862.663696   C631.460815,862.663696 673.865540,862.663696 716.634644,862.663696   C716.634644,878.795654 716.634644,894.536682 716.634644,910.639099   C581.191406,910.639099 445.455322,910.639099 309.359863,910.639099   C309.359863,895.193115 309.359863,879.452271 309.359863,863.310181   C351.486053,863.310181 393.892029,863.310181 436.648987,863.310181   C436.648987,829.175171 436.648987,795.436096 436.648987,760.999451   C435.000336,760.999451 433.084686,760.999451 431.169037,760.999451   C306.672363,760.999451 182.175690,761.000122 57.679020,760.998901   C27.274902,760.998596 7.001299,740.722900 7.001120,710.315613   C7.000106,538.986877 6.994694,367.658112 7.007166,196.329346   C7.008996,171.189926 22.879930,152.080154 47.571419,147.592682   C50.978016,146.973541 54.534214,147.023026 58.021179,147.022675   C298.180786,146.998383 538.340393,147.000610 779.000000,147.000610  M954.990601,293.077545   C954.990601,265.845978 954.990601,238.614395 954.990601,211.000610   C952.947449,211.000610 951.325378,211.000626 949.703369,211.000626   C926.247986,211.000626 902.792664,210.979202 879.337280,211.006271   C852.558960,211.037186 825.780579,211.111282 798.075928,211.012085   C703.544922,211.008423 609.013855,211.004181 514.482849,211.007980   C513.321960,211.008026 512.161011,211.111404 510.073914,211.013550   C363.808533,211.013550 217.543167,211.013550 71.290039,211.013550   C71.290039,373.306152 71.290039,535.039978 71.290039,696.833374   C83.058632,696.833374 94.531906,696.833374 106.931801,696.979126   C193.461945,696.987549 279.992096,696.996643 366.522247,696.997314   C367.682648,696.997314 368.843048,696.890381 370.929932,696.981750   C440.794708,696.989258 510.659515,696.997620 580.524292,696.997253   C581.684265,696.997253 582.844238,696.890320 584.930420,696.982239   C708.255737,696.982239 831.581055,696.982239 955.009644,696.982239   C955.009644,695.647156 955.009644,694.986755 955.009583,694.326294   C955.004211,615.548401 954.999451,536.770508 954.986877,457.992584   C954.986755,456.997162 954.886780,456.001740 954.992737,454.080109   C954.995117,422.660919 955.018555,391.241730 954.992737,359.822571   C954.974731,337.882904 954.889282,315.943298 954.990601,293.077545  M546.476074,761.000000   C520.726929,761.000000 494.977783,761.000000 469.299927,761.000000   C469.299927,795.323608 469.299927,829.045837 469.299927,862.697876   C498.658203,862.697876 527.715576,862.697876 556.698181,862.697876   C556.698181,828.672668 556.698181,794.950378 556.698181,761.000000   C553.420593,761.000000 550.442871,761.000000 546.476074,761.000000  z" />
  <path fill="#CBD5E1" opacity="1.000000" stroke="none" d=" M69.970581,210.000000 L955,210 L955,700 L69,700  z" />
  <path fill="#CBD5E1" opacity="1.000000" stroke="none"
    d=" M546.970581,761.000000   C550.442871,761.000000 553.420593,761.000000 556.698181,761.000000   C556.698181,794.950378 556.698181,828.672668 556.698181,862.697876   C527.715576,862.697876 498.658203,862.697876 469.299927,862.697876   C469.299927,829.045837 469.299927,795.323608 469.299927,761.000000   C494.977783,761.000000 520.726929,761.000000 546.970581,761.000000  z" />
  <path fill="#040819" opacity="1.000000" stroke="none"
    d=" M270.541992,327.706940   C282.621918,327.738007 294.256500,327.549072 305.859528,328.067413   C324.890076,328.917480 343.053711,332.996490 357.683258,346.190247   C362.212860,350.275269 365.396362,355.852844 369.564178,361.279541   C377.430267,378.885925 378.226501,396.012878 369.250732,412.717865   C362.498627,425.284302 351.220764,432.356323 337.768311,436.290771   C336.231262,436.740295 334.840973,437.691681 333.382629,438.410370   C356.086395,443.818787 361.244476,446.671265 374.933929,462.135834   C382.483917,473.080627 385.428070,485.476044 384.718811,498.440216   C383.117798,527.704895 367.058167,547.118469 338.651398,555.780640   C329.232513,558.652710 319.066589,560.154297 309.210114,560.315186   C275.732056,560.862122 242.239609,560.531372 208.752655,560.525757   C207.774414,560.525574 206.796188,560.413147 205.123810,560.310425   C205.123810,542.077271 205.123810,524.000427 205.031540,505.463013   C205.015427,503.177002 205.157837,501.351562 205.158112,499.526154   C205.166550,444.375488 205.160965,389.224823 205.157608,334.074158   C205.157486,332.257416 205.157593,330.440674 205.157593,327.804626   C226.950867,327.804626 248.516663,327.804626 270.541992,327.706940  M328.085876,472.493500   C321.873596,464.341156 313.393951,459.632019 303.437805,459.165466   C287.504852,458.418762 271.519226,458.792084 255.555756,458.722809   C255.307693,458.721741 255.057938,459.115448 254.885925,459.260193   C254.885925,479.518463 254.885925,499.706177 254.885925,519.836243   C271.205261,519.836243 287.174561,520.268677 303.098969,519.612305   C309.037262,519.367615 315.350067,517.509338 320.659576,514.771912   C334.966583,507.395813 338.212769,488.637360 328.085876,472.493500  M254.523956,374.490906   C254.523956,391.233673 254.523956,407.976440 254.523956,425.010773   C267.937561,425.010773 280.878143,425.271240 293.798492,424.873535   C298.503082,424.728729 303.366241,423.569397 307.798401,421.913177   C320.192139,417.281799 327.085388,405.857117 325.909485,392.898621   C324.773071,380.375946 316.912598,370.662231 303.580780,369.138031   C287.527100,367.302673 271.231903,367.579926 254.523849,366.922241   C254.523849,369.913300 254.523849,371.699890 254.523956,374.490906  z" />
  <path fill="#030718" opacity="1.000000" stroke="none"
    d=" M734.570129,327.713654   C749.489624,328.123047 763.828369,329.528473 777.528809,334.997833   C816.328979,350.487244 819.843384,392.229523 805.871826,414.439209   C798.833069,425.628296 788.417114,432.465698 775.815002,436.140991   C774.141174,436.629181 772.568420,437.463959 770.979858,438.764282   C794.511353,442.319946 811.350708,453.721466 819.368652,476.878479   C825.042542,499.401672 822.594666,520.147339 806.554382,537.636536   C794.974243,550.262756 779.905212,557.174011 763.149414,558.755920   C746.160645,560.359924 728.990723,560.045105 711.447327,560.704712   C691.221619,560.721985 671.448792,560.603333 651.675903,560.490723   C648.888733,560.474854 646.101440,560.488525 642.801086,560.488525   C642.801086,528.361877 642.801086,496.644867 642.804321,464.009338   C642.814453,445.319733 642.852966,427.548645 642.819702,409.777679   C642.783081,390.186096 642.680603,370.594696 642.606812,351.003204   C642.606812,343.524719 642.606812,336.046234 642.606812,327.814056   C673.389282,327.814056 703.783203,327.814056 734.570129,327.713654  M764.944336,471.642273   C759.959717,465.421387 753.496887,460.717957 745.735901,460.127289   C728.044861,458.780914 710.269165,458.547638 692.290649,457.852936   C692.290649,479.173981 692.290649,499.555115 692.290649,519.860291   C708.542114,519.860291 724.552307,520.659485 740.453491,519.683350   C768.193237,517.980530 780.376221,494.162994 764.944336,471.642273  M757.978638,412.392365   C770.234192,394.415375 762.267273,372.560242 740.857666,369.219482   C724.965698,366.739655 708.557129,367.570526 692.211060,366.920044   C692.211060,386.957581 692.211060,405.850677 692.211060,424.779144   C706.669373,424.779144 720.940063,425.270813 735.155701,424.598999   C744.005859,424.180695 751.751953,420.069366 757.978638,412.392365  z" />
  <path fill="#020717" opacity="1.000000" stroke="none"
    d=" M424.608429,331.999634   C424.765564,330.731720 424.922668,329.463776 425.127472,327.811218   C427.224304,327.811218 429.172363,327.811218 431.561951,327.712402   C459.992493,327.687256 487.981689,327.729187 515.970581,327.847046   C531.584106,327.912781 546.819214,330.125000 560.991089,337.083252   C574.725891,343.826935 585.479919,353.743073 592.533813,368.281677   C594.796143,375.085693 597.393860,381.220734 598.451233,387.610687   C602.410217,411.535217 599.724609,434.322205 582.710205,452.984650   C576.246643,460.074310 567.657043,465.225647 559.562134,471.636017   C564.291931,480.038025 569.631470,489.523163 574.971008,499.008301   C583.575623,515.117493 592.173828,531.230103 600.789124,547.333557   C603.021912,551.506958 605.308411,555.651672 607.953125,560.513367   C602.925354,560.513367 598.345581,560.515015 593.765808,560.513062   C581.935913,560.507935 570.103394,560.362183 558.277771,560.583923   C554.939331,560.646362 553.291565,559.503174 551.770508,556.622253   C538.583740,531.647034 525.175171,506.788940 512.008911,481.803070   C510.470001,478.882660 508.836731,477.839447 505.533295,477.917908   C495.229492,478.162659 484.916168,478.007660 474.182556,478.007660   C474.182556,505.474792 474.182556,532.720886 474.182556,560.570862   C465.144562,560.570862 456.522491,560.570862 447.447388,560.704102   C439.729187,560.837402 432.464050,560.837402 424.801941,560.837402   C424.801941,516.305420 424.801941,472.616577 424.804810,428.009155   C424.816406,420.119171 424.847931,413.147705 424.829742,406.176331   C424.765137,381.450745 424.683563,356.725189 424.608429,331.999634  M544.630798,422.958557   C549.021301,415.077576 549.810242,406.520233 548.838623,397.811951   C547.355652,384.520477 540.311584,375.259766 527.482544,371.102509   C509.996124,365.436127 491.983948,369.023743 474.320740,367.884979   C474.320740,391.825989 474.320740,415.015686 474.320740,437.851959   C488.918213,437.851959 503.220459,438.425995 517.451172,437.663818   C528.145569,437.091034 537.951294,433.315613 544.630798,422.958557  z" />
</svg>
